<svg width="720" height="220" viewBox="0 0 720 220" fill="none" xmlns="http://www.w3.org/2000/svg">
  <rect width="720" height="220" rx="44" fill="#0A1712"/>
  <rect x="18" y="18" width="684" height="184" rx="30" fill="url(#bgGlow)" stroke="rgba(143,214,172,0.22)"/>
  <g filter="url(#soft)">
    <circle cx="108" cy="110" r="54" fill="#0C2418"/>
    <path d="M108 54C89.2 54 72.5 63.4 62.6 77.8C69.8 76.1 77.7 75.2 86.1 75.2C113.9 75.2 136.6 84.8 152 100.6C151.4 74.5 132.2 54 108 54Z" fill="#98E3B7"/>
    <path d="M70.8 120.2C70.8 146.2 87.9 167.8 111.2 173.8C101.7 161.1 96 145.2 96 128C96 106.4 104.9 87.7 119.8 73.5C117.2 73 114.6 72.8 112 72.8C89.2 72.8 70.8 94.2 70.8 120.2Z" fill="#6CCF9A"/>
    <path d="M143.8 125.5C136.8 138.1 126.7 149.3 114.1 158C99.8 167.8 84.1 173.4 68.4 174.6C78 183.4 90.9 188.8 105 188.8C134.5 188.8 158.4 164.9 158.4 135.4C158.4 131.8 157.9 128.5 157.2 125.1L143.8 125.5Z" fill="#B8F2CA"/>
  </g>
  <path d="M226 76H259.5V90H242V103.5H257V117.2H242V132H259.5V146H226V76Z" fill="#EAF7EF"/>
  <path d="M271.3 146V76H287.3V131.8H313.8V146H271.3Z" fill="#EAF7EF"/>
  <path d="M323.7 146V76H339.7V146H323.7Z" fill="#EAF7EF"/>
  <path d="M353.9 145.3C347.2 145.3 341 144 335.1 141.4L340.2 128.3C344.8 130.2 349.3 131.2 353.9 131.2C360.4 131.2 363.6 129.3 363.6 125.6C363.6 123.9 362.8 122.4 361.1 121.3C359.5 120.1 356.9 118.7 353.2 117.2C347.8 115 343.8 112.4 341.2 109.3C338.7 106.2 337.4 102.2 337.4 97.4C337.4 90.6 339.8 85.2 344.5 81.1C349.2 77 355.3 75 362.6 75C369.1 75 375 76.4 380.2 79.3L375.1 91.9C370.8 89.8 366.6 88.7 362.5 88.7C357.2 88.7 354.6 90.3 354.6 93.6C354.6 95.3 355.3 96.7 356.8 97.8C358.4 98.8 361.2 100.2 365.2 101.9C370.8 104.2 374.8 106.9 377.2 110.1C379.7 113.2 380.9 117.3 380.9 122.2C380.9 129.3 378.4 134.9 373.4 139C368.4 143.2 361.9 145.3 353.9 145.3Z" fill="#EAF7EF"/>
  <path d="M390 76H444.4V90.1H425.2V146H409.2V90.1H390V76Z" fill="#EAF7EF"/>
  <path d="M454.1 146V76H470.1V146H454.1Z" fill="#EAF7EF"/>
  <path d="M480.4 76H534.8V90.1H515.6V146H499.6V90.1H480.4V76Z" fill="#EAF7EF"/>
  <path d="M568.5 145.3C561.8 145.3 555.6 144 549.7 141.4L554.8 128.3C559.4 130.2 563.9 131.2 568.5 131.2C575 131.2 578.2 129.3 578.2 125.6C578.2 123.9 577.4 122.4 575.7 121.3C574.1 120.1 571.5 118.7 567.8 117.2C562.4 115 558.4 112.4 555.8 109.3C553.3 106.2 552 102.2 552 97.4C552 90.6 554.4 85.2 559.1 81.1C563.8 77 569.9 75 577.2 75C583.7 75 589.6 76.4 594.8 79.3L589.7 91.9C585.4 89.8 581.2 88.7 577.1 88.7C571.8 88.7 569.2 90.3 569.2 93.6C569.2 95.3 569.9 96.7 571.4 97.8C573 98.8 575.8 100.2 579.8 101.9C585.4 104.2 589.4 106.9 591.8 110.1C594.3 113.2 595.5 117.3 595.5 122.2C595.5 129.3 593 134.9 588 139C583 143.2 576.5 145.3 568.5 145.3Z" fill="#EAF7EF"/>
  <defs>
    <linearGradient id="bgGlow" x1="64" y1="34" x2="644" y2="187" gradientUnits="userSpaceOnUse">
      <stop stop-color="#0E241A"/>
      <stop offset="1" stop-color="#0B1C15"/>
    </linearGradient>
    <filter id="soft" x="38" y="30" width="145" height="183" filterUnits="userSpaceOnUse" color-interpolation-filters="sRGB">
      <feFlood flood-opacity="0" result="BackgroundImageFix"/>
      <feBlend mode="normal" in="SourceGraphic" in2="BackgroundImageFix" result="shape"/>
      <feGaussianBlur stdDeviation="6" result="effect1_foregroundBlur"/>
    </filter>
  </defs>
</svg>
